# xmcd
#
# Track frame offsets: 
#        150
#        53722
#        94672
#        137597
#        169691
#        204002
#        238953
#
# Disc length: 3633 seconds
#
# Revision: 0
# Processed by: cddbd v1.5.2PL0 Copyright (c) Steve Scherf et al.
# Submitted via: ExactAudioCopyFreeDBPlugin 1.0
#
DISCID=540e2f07
DTITLE=Chris Robinson Brotherhood - Big Moon Ritual
DYEAR=2012
DGENRE=Blues
TTITLE0=Tulsa Yesterday
TTITLE1=Rosalee
TTITLE2=Star Or Stone
TTITLE3=Tomorrows Blues
TTITLE4=Reflections on a Broken Mirror
TTITLE5=Beware, Oh Take Care
TTITLE6=One Hundred Days of Rain
EXTD=
EXTT0=
EXTT1=
EXTT2=
EXTT3=
EXTT4=
EXTT5=
EXTT6=
PLAYORDER=
